# xmcd
#
# Track frame offsets: 
#        150
#        15143
#        27795
#        42442
#        59115
#        73278
#        87156
#        99996
#        113548
#        128948
#        143298
#        158259
#        172662
#        187773
#        203265
#
# Disc length: 2996 seconds
#
# Revision: 1
# Processed by: cddbd v1.5.2PL0 Copyright (c) Steve Scherf et al.
# Submitted via: ExactAudioCopy v0.99pb4
#
DISCID=a70bb20f
DTITLE=Honky Tonk Pickers - Right On The Nose
DYEAR=2003
DGENRE=Country
TTITLE0=Big Mamou
TTITLE1=Right Place
TTITLE2=I Don't Believe I Fall In Love Today
TTITLE3=Gonna Get A Life
TTITLE4=Lovebug
TTITLE5=Red Winde And Cheatin' Song
TTITLE6=Bob Wills Is Still The King
TTITLE7=Smokey The Bandit
TTITLE8=I Want To Dance With You
TTITLE9=Those Tacos
TTITLE10=Honky Tonk Crowd
TTITLE11=Honky Tonk Blues
TTITLE12=Rainy Day Woman
TTITLE13=Freeborn Man
TTITLE14=Don't Close Your Eyes
EXTD=YEAR: 2003
EXTT0=
EXTT1=
EXTT2=
EXTT3=
EXTT4=
EXTT5=
EXTT6=
EXTT7=
EXTT8=
EXTT9=
EXTT10=
EXTT11=
EXTT12=
EXTT13=
EXTT14=
PLAYORDER=
